<svg xmlns="http://www.w3.org/2000/svg" xmlns:xlink="http://www.w3.org/1999/xlink" width="62" height="62" viewBox="0 0 62 62"><defs><style>.a{fill:#9c9ca8;}.b{clip-path:url(#a);}</style><clipPath id="a"><rect class="a" width="62" height="62" transform="translate(424 2817)"/></clipPath></defs><g transform="translate(-424 -2817)"><g class="b"><g transform="translate(424 2817)"><path class="a" d="M21.08,34.326H32.821a1.211,1.211,0,0,0,1.211-1.211V13.045a1.211,1.211,0,0,0-1.211-1.211H21.08a4.289,4.289,0,0,0-4.251,4.251V29.97s0,0,0,0c0,.033,0,.066,0,.1a4.256,4.256,0,0,0,4.251,4.251Zm0-2.422a1.832,1.832,0,0,1-1.829-1.829,1.851,1.851,0,0,1,1.83-1.829H31.61V31.9H21.08ZM19.786,14.791a1.818,1.818,0,0,1,1.294-.536H31.61V25.823H21.08a4.274,4.274,0,0,0-1.827.41V16.083a1.813,1.813,0,0,1,.535-1.292Z"/><path class="a" d="M23.5,19.34h4.252a1.211,1.211,0,0,0,0-2.422H23.5a1.211,1.211,0,0,0,0,2.422Z"/><path class="a" d="M9.778,28.709a1.21,1.21,0,1,0-.446-1.47,1.219,1.219,0,0,0,.446,1.47Z"/><path class="a" d="M51.524,47.385,41.621,33V5.688A5.7,5.7,0,0,0,35.933,0H14.927A5.7,5.7,0,0,0,9.239,5.688V22.455a1.211,1.211,0,1,0,2.422,0V5.688a3.27,3.27,0,0,1,3.266-3.266h5.644v.663a4.859,4.859,0,1,0,9.717,0V2.422h5.645A3.27,3.27,0,0,1,39.2,5.688V33.369s0,0,0,.007V50.871a1.872,1.872,0,0,1-1.87,1.87,1.894,1.894,0,0,1-1.87-1.87V43.708a5.47,5.47,0,0,0-5.675-5.337H21.809c-.038,0-.075,0-.113.005a4.228,4.228,0,0,0-4.129,4.129q-.005.056-.005.113a4.252,4.252,0,0,0,4.247,4.247h3.062v5.875H14.927a3.27,3.27,0,0,1-3.266-3.266V33.066a1.211,1.211,0,0,0-2.422,0V49.475a5.7,5.7,0,0,0,5.688,5.688h9.946v5.626a1.211,1.211,0,0,0,2.422,0V43.709a2.871,2.871,0,1,1,5.742,0v7.164a4.338,4.338,0,0,0,4.332,4.292,4.258,4.258,0,0,0,4.253-4.253V37.272l7.907,11.485a4.563,4.563,0,0,1,.422,4.435l-.006.014-3,7.113a1.211,1.211,0,0,0,.646,1.586,1.223,1.223,0,0,0,1.586-.646l2.994-7.107a6.973,6.973,0,0,0-.65-6.768ZM27.867,3.085a2.437,2.437,0,1,1-4.873,0V2.422h4.874v.663ZM21.81,44.444a1.826,1.826,0,1,1,.06-3.65h3.873a5.308,5.308,0,0,0-.842,2.365,12.349,12.349,0,0,0-.029,1.286Z"/></g></g></g></svg>