<svg xmlns="http://www.w3.org/2000/svg" xmlns:xlink="http://www.w3.org/1999/xlink" width="62" height="62" viewBox="0 0 62 62"><defs><style>.a,.c{fill:#9c9ca8;}.b{clip-path:url(#a);}.c{stroke:#9c9ca8;stroke-width:0.6px;}</style><clipPath id="a"><rect class="a" width="62" height="62" transform="translate(356 2837)"/></clipPath></defs><g class="b" transform="translate(-356 -2837)"><g transform="translate(358.583 2837)"><path class="c" d="M43.4,42.367V32.033a9.31,9.31,0,0,0-9.3-9.3H17.567a9.31,9.31,0,0,0-9.3,9.3V45.467h2.067V32.033A7.241,7.241,0,0,1,17.567,24.8h1.639l5.9,5.9a1.034,1.034,0,0,0,1.461,0l5.9-5.9H34.1a7.241,7.241,0,0,1,7.233,7.233V42.367ZM25.833,28.505,22.128,24.8h7.411Zm0,0"/><path class="c" d="M15.5,34.1h2.067v9.3H15.5Zm0,0"/><path class="c" d="M34.1,34.1h2.067v7.233H34.1Zm0,0"/><path class="c" d="M55.8,45.467H42.622A15.912,15.912,0,0,0,35.2,43.514c-.078-.007-.16-.01-.233-.01a16,16,0,0,0-7.656,1.951l-7.679.013A4.134,4.134,0,0,0,15.5,49.6a1.727,1.727,0,0,0,.015.245,4.06,4.06,0,0,0,.134.838L9.824,48.014l-.094-.046L6.251,46.378A4.408,4.408,0,0,0,0,50.385v.228a4.371,4.371,0,0,0,2.441,3.941L15.8,61.245A7.321,7.321,0,0,0,19.034,62H55.8a1.033,1.033,0,0,0,1.033-1.033V46.5A1.033,1.033,0,0,0,55.8,45.467ZM41.333,59.933h-22.3a5.268,5.268,0,0,1-2.316-.541L3.362,52.7a2.319,2.319,0,0,1-1.3-2.087v-.228a2.342,2.342,0,0,1,3.321-2.128l3.451,1.576.093.045,8.2,3.761a1.038,1.038,0,0,0,.432.094H28.933V51.667h-9.3a2.056,2.056,0,0,1-2.057-1.973,1,1,0,0,0-.01-.1,2.067,2.067,0,0,1,2.067-2.058h7.926a1.032,1.032,0,0,0,.506-.132l.248-.14a14.03,14.03,0,0,1,6.623-1.7,1,1,0,0,0,.19.02,13.816,13.816,0,0,1,6.208,1.54Zm13.433,0H43.4v-12.4H54.767Zm0,0"/><path class="c" d="M45.467,55.8h2.067v2.067H45.467Zm0,0"/><path class="c" d="M25.833,20.667A8.276,8.276,0,0,0,34.1,12.4V8.267a8.267,8.267,0,1,0-16.533,0V12.4A8.276,8.276,0,0,0,25.833,20.667Zm-6.2-12.4a6.2,6.2,0,1,1,12.4,0V12.4a6.2,6.2,0,0,1-12.4,0Zm0,0"/><path class="c" d="M23.767,8.267a2.074,2.074,0,0,1,1.378-1.949l-.69-1.948a4.142,4.142,0,0,0-2.755,3.9V9.3h2.067Zm0,0"/></g></g></svg>