<svg xmlns="http://www.w3.org/2000/svg" xmlns:xlink="http://www.w3.org/1999/xlink" width="62" height="62" viewBox="0 0 62 62"><defs><style>.a{fill:#9c9ca8;}.b{clip-path:url(#a);}</style><clipPath id="a"><rect class="a" width="62" height="62" transform="translate(356 2837)"/></clipPath></defs><g class="b" transform="translate(-356 -2837)"><g transform="translate(360.602 2837)"><path class="a" d="M52.735,16.822l0-.048c-.027-.6-.045-1.226-.056-1.927A6.571,6.571,0,0,0,46.49,8.41c-7.128-.4-12.643-2.722-17.355-7.315l-.04-.038a3.968,3.968,0,0,0-5.393,0l-.04.038C18.951,5.688,13.436,8.012,6.308,8.41A6.571,6.571,0,0,0,.121,14.848c-.01.7-.029,1.326-.056,1.926l0,.112C-.077,24.155-.249,33.2,2.778,41.413a31.222,31.222,0,0,0,7.49,11.667,39.183,39.183,0,0,0,14.658,8.67,4.54,4.54,0,0,0,.6.164,4.437,4.437,0,0,0,1.744,0,4.554,4.554,0,0,0,.6-.165,39.209,39.209,0,0,0,14.642-8.675,31.265,31.265,0,0,0,7.49-11.67C53.045,33.168,52.873,24.1,52.735,16.822ZM46.594,40.145c-3.192,8.654-9.708,14.6-19.92,18.169a.913.913,0,0,1-.115.031.816.816,0,0,1-.32,0,.905.905,0,0,1-.115-.031C15.9,54.75,9.381,48.81,6.191,40.155,3.4,32.586,3.56,24.282,3.7,16.956v-.041c.028-.63.047-1.289.058-2.014a2.921,2.921,0,0,1,2.753-2.859A31.92,31.92,0,0,0,17.345,9.66a28.345,28.345,0,0,0,8.829-5.932.335.335,0,0,1,.45,0A28.356,28.356,0,0,0,35.453,9.66a31.921,31.921,0,0,0,10.835,2.383A2.92,2.92,0,0,1,49.04,14.9c.011.728.03,1.388.058,2.013C49.237,24.249,49.391,32.56,46.594,40.145Zm0,0"/><path class="a" d="M26.4,15.55A15.451,15.451,0,1,0,41.849,31,15.469,15.469,0,0,0,26.4,15.55Zm0,27.265A11.813,11.813,0,1,1,38.211,31,11.827,11.827,0,0,1,26.4,42.814Zm0,0"/><path class="a" d="M30.839,26.2l-7.177,7.177-1.948-1.948A1.819,1.819,0,1,0,19.141,34l3.235,3.235a1.819,1.819,0,0,0,2.572,0l8.463-8.463A1.819,1.819,0,0,0,30.839,26.2Zm0,0"/></g></g></svg>