<svg xmlns="http://www.w3.org/2000/svg" xmlns:xlink="http://www.w3.org/1999/xlink" width="64" height="64" viewBox="0 0 64 64"><defs><style>.a,.c{fill:#20b3e7;}.a{stroke:#707070;}.b{clip-path:url(#a);}</style><clipPath id="a"><rect class="a" width="64" height="64" transform="translate(444 659)"/></clipPath></defs><g class="b" transform="translate(-444 -659)"><g transform="translate(444 659)"><path class="c" d="M46,64a17.831,17.831,0,0,1-6.117-1.093,65.232,65.232,0,0,1-23.688-15.1,65.228,65.228,0,0,1-15.1-23.688,17.7,17.7,0,0,1-.9-8.7A18.153,18.153,0,0,1,9.519,2.132,17.821,17.821,0,0,1,18.052,0a2,2,0,0,1,1.956,1.581L23.147,16.23a2,2,0,0,1-.541,1.833l-5.364,5.364A52.643,52.643,0,0,0,40.573,46.758l5.364-5.364a2,2,0,0,1,1.833-.541l14.649,3.139A2,2,0,0,1,64,45.948a17.82,17.82,0,0,1-2.132,8.533A18.153,18.153,0,0,1,48.58,63.81,17.789,17.789,0,0,1,46,64ZM16.454,4.087a14.014,14.014,0,0,0-11.6,18.668A60.66,60.66,0,0,0,41.245,59.148a14.014,14.014,0,0,0,18.668-11.6L48,44.992l-5.6,5.6a2,2,0,0,1-2.265.4A56.629,56.629,0,0,1,13.01,23.871a2,2,0,0,1,.4-2.265l5.6-5.6Z"/><path class="c" d="M62,34a2,2,0,0,1-2-2A28.031,28.031,0,0,0,32,4a2,2,0,0,1,0-4A32,32,0,0,1,64,32a2,2,0,0,1-2,2Z"/><path class="c" d="M54,34a2,2,0,0,1-2-2A20.022,20.022,0,0,0,32,12a2,2,0,0,1,0-4A24.026,24.026,0,0,1,56,32,2,2,0,0,1,54,34Z"/><path class="c" d="M46,34a2,2,0,0,1-2-2A12.013,12.013,0,0,0,32,20a2,2,0,1,1,0-4A16.017,16.017,0,0,1,48,32,2,2,0,0,1,46,34Z"/></g></g></svg>