<svg xmlns="http://www.w3.org/2000/svg" xmlns:xlink="http://www.w3.org/1999/xlink" width="81" height="81" viewBox="0 0 81 81"><defs><style>.a,.c{fill:#20b3e7;}.a{stroke:#707070;}.b{clip-path:url(#a);}</style><clipPath id="a"><rect class="a" width="81" height="81" transform="translate(0.128 0.128)"/></clipPath></defs><g transform="translate(-444.275 -659.275)"><g class="b" transform="translate(444.147 659.147)"><g transform="translate(-0.133 19.933)"><path class="c" d="M77.542,57c.031-.006.06-.014.091-.022s.052-.012.077-.02.058-.02.087-.03.051-.017.076-.028.053-.024.08-.037.052-.024.077-.037.049-.029.073-.043.051-.029.075-.046.05-.037.076-.056.043-.031.064-.048c.038-.031.074-.065.11-.1l.02-.018.019-.021c.034-.035.067-.071.1-.108.018-.022.034-.045.051-.068s.036-.046.052-.071.033-.053.049-.08.028-.045.04-.068.027-.055.04-.083.024-.049.034-.074.02-.055.03-.082.02-.053.028-.081.015-.056.022-.084.015-.055.02-.083.011-.067.015-.1.008-.047.01-.071a1.761,1.761,0,0,0,.009-.176V17.543A1.765,1.765,0,0,0,77.2,15.778H21.6l-.046,0c-.034,0-.067,0-.1.005l-.079.009-.09.014-.083.017-.084.022-.081.025-.082.03-.076.032-.083.04-.069.037c-.027.016-.054.032-.081.049l-.064.044c-.025.018-.05.036-.074.055l-.065.054c-.021.019-.042.037-.063.057s-.046.046-.068.069-.023.022-.033.034l-.017.022c-.022.026-.043.052-.064.08s-.031.04-.045.06-.035.053-.052.081-.028.044-.041.067-.028.053-.041.08-.025.049-.036.075-.022.054-.032.081-.02.053-.029.08-.016.055-.023.082-.016.056-.022.085-.01.054-.015.08-.01.061-.014.092,0,.051-.006.077,0,.066,0,.1c0,.01,0,.019,0,.029V28.428a1.765,1.765,0,0,0,3.53,0V21.463L39.054,35.358a1.783,1.783,0,0,0-.234.195L23.36,51.012v-11.6a1.765,1.765,0,1,0-3.53,0v2.157H10.71a1.765,1.765,0,0,0,0,3.53h9.12V55.274a1.765,1.765,0,0,0,1.765,1.765H77.2c.058,0,.116,0,.174-.009.027,0,.053-.008.08-.012S77.512,57.011,77.542,57Zm-2.11-5.993-15.46-15.46-.031-.028,11.623-9.861a1.765,1.765,0,1,0-2.284-2.692L49.421,39.822,26.251,19.309H75.432v31.7ZM41.316,38.049a1.759,1.759,0,0,0,.308-.415l6.6,5.845a1.765,1.765,0,0,0,2.312.024L57.266,37.8a1.775,1.775,0,0,0,.209.254l15.46,15.46H25.857Z" transform="translate(2.431 -15.778)"/><path class="c" d="M1.765,32.34H31.577a1.765,1.765,0,0,0,0-3.53H1.765a1.765,1.765,0,1,0,0,3.53Z" transform="translate(0 -12.237)"/><path class="c" d="M4.194,24.691H17.58a1.765,1.765,0,0,0,0-3.53H4.194a1.765,1.765,0,0,0,0,3.53Z" transform="translate(0.66 -14.315)"/><path class="c" d="M14.71,41.918H1.765a1.765,1.765,0,1,0,0,3.53H14.71a1.765,1.765,0,1,0,0-3.53Z" transform="translate(0 -8.674)"/></g></g></g></svg>