<svg xmlns="http://www.w3.org/2000/svg" width="52" height="52" viewBox="0 0 52 52"><defs><style>.a{fill:rgba(32,179,231,0.11);}.b{fill:#20b3e7;}</style></defs><g transform="translate(-290 -723)"><circle class="a" cx="26" cy="26" r="26" transform="translate(290 723)"/><g transform="translate(304.136 737.136)"><path class="b" d="M222.895,343.22a1.244,1.244,0,0,0,0,2.488,1.244,1.244,0,1,0,0-2.488Z" transform="translate(-211.394 -327.314)"/><path class="b" d="M187.2,140c-2.181,0-3.182,1.292-3.182,2.165a.926.926,0,0,0,.969.921c.872,0,.517-1.244,2.165-1.244.808,0,1.454.355,1.454,1.1,0,.872-.9,1.373-1.438,1.825a2.957,2.957,0,0,0-1.082,2.455c0,.84.226,1.082.888,1.082.792,0,.953-.355.953-.662a2.029,2.029,0,0,1,.9-2.019,4.135,4.135,0,0,0,1.809-2.956C190.645,141.149,189.272,140,187.2,140Z" transform="translate(-175.494 -133.514)"/><path class="b" d="M11.864,0A11.858,11.858,0,0,0,0,11.864V22.8a.927.927,0,0,0,.927.927H11.864A11.864,11.864,0,0,0,11.864,0Zm0,21.875H1.854V11.864a10.01,10.01,0,1,1,10.01,10.01Z"/></g></g></svg>